<svg width="144" height="47" viewBox="0 0 144 47" fill="none" xmlns="http://www.w3.org/2000/svg">
  <path fill-rule="evenodd" clip-rule="evenodd" d="M11.2065 0.943359H34.7829C40.9372 0.943359 45.9893 5.96483 45.9893 12.0886V26.6019H40.3861V12.0886C40.3861 9.0267 37.8754 6.51597 34.8135 6.51597H11.2371C8.1752 6.51597 5.66446 9.0267 5.66446 12.0886V20.9986H9.76737V16.957C9.76737 13.5277 12.5843 10.7107 16.0136 10.7107H30.0064C33.4356 10.7107 36.2526 13.5277 36.2526 16.957V26.8162H15.3094V30.3986C15.3094 30.9497 15.7686 31.3784 16.2892 31.3784C26.179 31.3784 36.0689 31.4396 45.9587 31.4396V35.7875C45.9587 41.9112 40.9066 46.9327 34.7523 46.9327H11.1758C5.05209 46.9633 0 41.9418 0 35.8181V31.2865H5.60323V35.7875C5.60323 38.8493 8.11396 41.3601 11.1758 41.3601H34.7523C37.4161 41.3601 39.6513 39.4617 40.2024 36.9816C32.119 36.9816 24.0357 36.9816 15.9524 36.9816C12.5231 36.9816 9.70614 34.1647 9.70614 30.7354V26.6019C6.46055 26.6019 3.24559 26.6019 0 26.6019V12.0886C0 5.96483 5.05209 0.943359 11.2065 0.943359ZM16.2585 16.4058H29.5165C30.1288 16.4058 30.6187 16.8957 30.6187 17.5081V21.213H15.1563V17.5081C15.1563 16.8957 15.6462 16.4058 16.2585 16.4058Z" fill="#1155C9"/>
  <path d="M71.8317 24.0914L72.0767 28.0106C69.8721 28.2555 66.1367 28.3474 60.8396 28.3474C59.2168 28.3474 57.9308 27.9187 56.9817 27.0308C56.0325 26.1428 55.5426 24.9793 55.512 23.479V8.81261C55.5426 7.31229 56.0325 6.11816 56.9817 5.26083C57.9308 4.37289 59.2168 3.94423 60.8396 3.94423C66.1367 3.94423 69.8721 4.0667 72.0767 4.28103L71.8317 8.26147H62.5236C61.9419 8.26147 61.5132 8.41456 61.2683 8.69013C61.0233 8.9657 60.8702 9.42498 60.8702 10.068V13.7422H70.5151V17.6002H60.8702V22.2848C60.8702 22.9278 60.9927 23.4177 61.2683 23.6933C61.5132 23.9689 61.9419 24.122 62.5236 24.122H71.8317V24.0914ZM101.869 4.03608L95.3163 26.7858C95.1938 27.2451 94.9795 27.5819 94.6427 27.8575C94.3059 28.133 93.9078 28.2555 93.4179 28.2555H88.5496C88.0903 28.2555 87.6922 28.133 87.3248 27.8575C86.988 27.5819 86.7431 27.2451 86.6512 26.7858L80.0376 4.03608H85.5489L89.9274 21.5194C90.1724 22.4686 90.3561 23.3565 90.5092 24.2138H91.3971C91.4583 23.7545 91.6727 22.8666 91.9789 21.5194L96.3267 4.03608H101.869ZM116.168 28.2555H110.84V4.03608H116.168V28.2555ZM136.315 19.1005L131.446 17.3859C129.64 16.7429 128.354 15.8549 127.588 14.722C126.823 13.5891 126.425 12.1194 126.425 10.3129C126.425 7.64909 127.068 5.87321 128.385 4.95465C129.671 4.0667 131.967 3.60742 135.243 3.60742C138.336 3.60742 140.999 3.91361 143.204 4.5566L142.867 8.20023C140.816 8.13899 138.305 8.10838 135.274 8.10838C133.865 8.10838 132.947 8.23085 132.457 8.4758C131.998 8.72075 131.753 9.33312 131.753 10.3129C131.753 11.109 131.936 11.6908 132.273 12.0276C132.61 12.3644 133.284 12.7318 134.263 13.038L138.856 14.6302C140.724 15.2732 142.04 16.1917 142.837 17.3246C143.602 18.4575 144 19.9272 144 21.7643C144 24.4894 143.357 26.3265 142.04 27.3063C140.724 28.2861 138.397 28.776 135.029 28.776C132.304 28.776 129.517 28.4698 126.701 27.8575L127.007 23.9995C131.998 24.122 134.661 24.1832 134.998 24.1832C136.437 24.1832 137.386 24.0301 137.846 23.7239C138.336 23.4177 138.581 22.7747 138.581 21.8256C138.581 20.9989 138.427 20.4171 138.091 20.0803C137.784 19.6823 137.203 19.3761 136.315 19.1005Z" fill="#1155C9"/>
  <path d="M58.2982 34.5931C57.2265 34.5931 56.3386 34.6544 55.5425 34.7156V44.0237C56.3692 44.0849 57.2571 44.1462 58.2982 44.1462C60.564 44.1462 61.36 42.9826 61.36 39.3696C61.36 35.7566 60.5333 34.5931 58.2982 34.5931ZM58.2982 42.9827C57.7776 42.9827 57.2877 42.9826 56.8591 42.952V35.7872C57.2877 35.7872 57.747 35.7872 58.2982 35.7872C59.5535 35.7872 59.9516 36.6752 59.9516 39.4003C59.9516 42.0947 59.5535 42.9827 58.2982 42.9827ZM65.2792 37.2569C64.6362 37.2569 63.4421 37.41 62.6766 37.5631L62.7991 38.5123C63.6258 38.4205 64.5444 38.3592 65.0037 38.3592C65.7998 38.3592 66.0141 38.6042 66.0141 39.4309V39.9514H64.0239C63.0135 39.9514 62.4317 40.5332 62.4317 41.6048V42.2784C62.4317 43.4725 63.1359 44.1462 64.1463 44.1462C65.0955 44.1462 65.7691 43.5644 66.1672 43.0745L66.2897 44.0237H67.3001V39.4309C67.3001 37.7775 66.6265 37.2569 65.2792 37.2569ZM64.4219 43.0439C63.9626 43.0439 63.7483 42.7683 63.7483 42.1253V41.7885C63.7483 41.2986 63.8402 40.9924 64.2688 40.9618H65.9835V42.2172C65.4017 42.7989 64.7893 43.0439 64.4219 43.0439ZM70.515 38.4511H72.0766V37.4407H70.515V35.5117H69.2291V37.4407L68.2492 37.5019V38.4511H69.2291V42.309C69.2291 43.5032 69.719 44.1462 70.6681 44.1462C71.0049 44.1462 71.6785 44.0849 72.0154 43.9624L71.8623 42.952H71.1274C70.6375 42.952 70.4844 42.7377 70.4844 42.1253V38.4511H70.515ZM75.7202 37.2569C75.0772 37.2569 73.8831 37.41 73.1176 37.5631L73.2401 38.5123C74.0668 38.4205 74.9854 38.3592 75.4446 38.3592C76.2407 38.3592 76.4551 38.6042 76.4551 39.4309V39.9514H74.4649C73.4544 39.9514 72.8727 40.5332 72.8727 41.6048V42.2784C72.8727 43.4725 73.5769 44.1462 74.5873 44.1462C75.5365 44.1462 76.2101 43.5644 76.6082 43.0745L76.7306 44.0237H77.7411V39.4309C77.7411 37.7775 77.0368 37.2569 75.7202 37.2569ZM74.8323 43.0439C74.373 43.0439 74.1587 42.7683 74.1587 42.1253V41.7885C74.1587 41.2986 74.2505 40.9924 74.6792 40.9618H76.3938V42.2172C75.8427 42.7989 75.2303 43.0439 74.8323 43.0439ZM87.5697 34.7156C87.2635 34.7156 87.0798 34.8687 86.9879 35.1749L85.9775 40.5944L85.7632 41.8498H85.6101C85.5488 41.4211 85.457 41.0231 85.3957 40.5944L84.3853 35.1443C84.2935 34.8381 84.1404 34.685 83.8342 34.685H82.3645C82.0277 34.685 81.844 34.8993 81.844 35.2361L81.5684 43.9931H82.885L83.0993 35.8179H83.3137L84.569 42.4315C84.6609 42.7377 84.8446 42.8908 85.1508 42.8908H86.2531C86.5592 42.8908 86.743 42.7377 86.8042 42.4315L88.0596 35.8179H88.2739L88.5188 43.9931H89.8354L89.5293 35.2361C89.5293 34.8993 89.3456 34.685 88.9781 34.685H87.5697V34.7156ZM93.8465 37.2569C93.2035 37.2569 92.0094 37.41 91.2439 37.5631L91.3664 38.5123C92.1931 38.4205 93.1117 38.3592 93.5709 38.3592C94.367 38.3592 94.5813 38.6042 94.5813 39.4309V39.9514H92.5911C91.5807 39.9514 90.999 40.5332 90.999 41.6048V42.2784C90.999 43.4725 91.7032 44.1462 92.7136 44.1462C93.6628 44.1462 94.3364 43.5644 94.7344 43.0745L94.8569 44.0237H95.8673V39.4309C95.8673 37.7775 95.1937 37.2569 93.8465 37.2569ZM92.9892 43.0439C92.5299 43.0439 92.3156 42.7683 92.3156 42.1253V41.7885C92.3156 41.2986 92.4074 40.9924 92.8361 40.9618H94.5507V42.2172C93.969 42.7989 93.3566 43.0439 92.9892 43.0439ZM100.889 37.2569H100.644C99.9702 37.2569 99.1742 37.6856 98.4699 38.4205L98.3475 37.4407H97.337V44.0237H98.623V39.2165C99.3885 38.7573 99.8784 38.4817 100.368 38.4817H100.736L100.889 37.2569ZM103.553 40.7781L105.237 44.0237H106.706L105.022 40.9006C104.9 40.6862 104.686 40.4413 104.594 40.3494V40.3188C104.716 40.227 104.93 40.0126 105.022 39.8289L106.523 37.4407H105.053L103.522 39.8289H103.001C103.032 39.4615 103.063 39.1247 103.063 38.696V34.5625H101.777V43.9931H103.063V41.7885C103.063 41.4517 103.032 41.1149 103.001 40.7781H103.553ZM109.921 43.1051C108.972 43.1051 108.574 42.7989 108.482 41.3905H110.717C111.605 41.3905 112.065 40.6862 112.065 39.4921C112.065 38.053 111.391 37.2876 109.676 37.2876C107.901 37.2876 107.135 38.1449 107.135 40.7475C107.135 43.2888 107.87 44.2074 109.768 44.2074C110.411 44.2074 111.36 44.0849 111.942 43.8094L111.82 42.952C111.177 43.0133 110.411 43.1051 109.921 43.1051ZM109.707 38.3898C110.534 38.3898 110.748 38.696 110.748 39.4921C110.748 39.8902 110.717 40.3801 110.35 40.3801H108.452C108.482 38.7879 108.758 38.3898 109.707 38.3898ZM115.035 38.4511H116.596V37.4407H115.035V35.5117H113.749V37.4407L112.769 37.5019V38.4511H113.749V42.309C113.749 43.5032 114.239 44.1462 115.188 44.1462C115.525 44.1462 116.198 44.0849 116.535 43.9624L116.382 42.952H115.647C115.157 42.952 115.004 42.7377 115.004 42.1253V38.4511H115.035ZM121.036 37.2569C120.24 37.2569 119.321 37.7162 118.801 38.4205L118.709 37.4407H117.637V46.7181H118.923V44.881C118.923 44.4217 118.923 44.0237 118.893 43.5644C119.444 43.9931 120.087 44.2074 120.73 44.2074C122.077 44.2074 122.812 43.3501 122.812 40.8087C122.812 38.5123 122.291 37.2569 121.036 37.2569ZM120.393 43.0439C119.872 43.0439 119.474 42.8908 118.923 42.7071V39.3696C119.566 38.7266 120.056 38.4205 120.546 38.4205C121.22 38.4205 121.465 39.0022 121.465 40.7781C121.465 42.6458 121.189 43.0439 120.393 43.0439ZM125.414 34.5931H124.128V42.4315C124.128 43.5644 124.68 44.1462 125.537 44.1462C125.843 44.1462 126.425 44.0849 126.67 43.9624L126.517 42.952H126.057C125.629 42.952 125.414 42.6765 125.414 42.1253V34.5931ZM130.068 37.2569C129.425 37.2569 128.231 37.41 127.466 37.5631L127.588 38.5123C128.415 38.4205 129.334 38.3592 129.793 38.3592C130.589 38.3592 130.803 38.6042 130.803 39.4309V39.9514H128.813C127.803 39.9514 127.221 40.5332 127.221 41.6048V42.2784C127.221 43.4725 127.925 44.1462 128.936 44.1462C129.885 44.1462 130.558 43.5644 130.956 43.0745L131.079 44.0237H132.089V39.4309C132.089 37.7775 131.416 37.2569 130.068 37.2569ZM129.211 43.0439C128.752 43.0439 128.538 42.7683 128.538 42.1253V41.7885C128.538 41.2986 128.629 40.9924 129.058 40.9618H130.773V42.2172C130.191 42.7989 129.579 43.0439 129.211 43.0439ZM135.886 37.2569C133.988 37.2569 133.283 38.1755 133.283 40.7169C133.283 43.2582 133.988 44.1768 135.886 44.1768C136.56 44.1768 137.264 44.0543 137.815 43.8094L137.693 42.9214C137.111 43.0439 136.437 43.0745 136.1 43.0745C135.029 43.0745 134.631 42.554 134.631 40.7169C134.631 38.8797 134.998 38.3592 136.1 38.3592C136.498 38.3592 137.05 38.3898 137.57 38.4205L137.723 37.5938C137.172 37.3488 136.407 37.2569 135.886 37.2569ZM141.397 43.1051C140.448 43.1051 140.05 42.7989 139.958 41.3905H142.193C143.081 41.3905 143.541 40.6862 143.541 39.4921C143.541 38.053 142.867 37.2876 141.152 37.2876C139.377 37.2876 138.611 38.1449 138.611 40.7475C138.611 43.2888 139.346 44.2074 141.244 44.2074C141.887 44.2074 142.836 44.0849 143.418 43.8094L143.296 42.952C142.653 43.0133 141.887 43.1051 141.397 43.1051ZM141.183 38.3898C142.01 38.3898 142.224 38.696 142.224 39.4921C142.224 39.8902 142.193 40.3801 141.826 40.3801H139.928C139.958 38.7879 140.234 38.3898 141.183 38.3898Z" fill="#1155C9"/>
</svg>
