<svg width="16" height="14" viewBox="0 0 16 14" fill="none" xmlns="http://www.w3.org/2000/svg">
  <path d="M14.7233 2.15468L16 0.933349V0.666016H11.5773L8.42533 8.51135L4.83933 0.666016H0.202V0.933349L1.69333 2.72868C1.83867 2.86135 1.91467 3.05535 1.89533 3.25068V10.306C1.94133 10.56 1.85867 10.8213 1.68 11.006L0 13.042V13.306H4.76333V13.0387L3.08333 11.006C2.90133 10.8207 2.81533 10.564 2.852 10.306V4.20335L7.03333 13.3093H7.51933L11.1147 4.20335V11.4573C11.1147 11.6487 11.1147 11.688 10.9893 11.8133L9.696 13.0647V13.3327H15.9707V13.0653L14.724 11.8447C14.6147 11.762 14.558 11.6233 14.5813 11.4887V2.51068C14.558 2.37535 14.614 2.23668 14.7233 2.15468Z" fill="white"/>
</svg>
