<svg width="79" height="37" viewBox="0 0 79 37" fill="none" xmlns="http://www.w3.org/2000/svg">
  <path fill-rule="evenodd" clip-rule="evenodd" d="M28.7273 0C30.2729 0 31.6451 0.509546 32.1339 1.26498L50.2727 29.2998L57.6388 17.915C58.1276 17.1595 59.4998 16.65 61.0455 16.65H75.4091C77.3923 16.65 79 17.4783 79 18.5C79 19.5217 77.3923 20.35 75.4091 20.35H63.6336L53.6794 35.735C53.1906 36.4905 51.8184 37 50.2727 37C48.7271 37 47.3549 36.4905 46.8661 35.735L28.7273 7.70021L21.3612 19.085C20.8724 19.8405 19.5002 20.35 17.9545 20.35H3.59091C1.6077 20.35 0 19.5217 0 18.5C0 17.4783 1.6077 16.65 3.59091 16.65H15.3664L25.3206 1.26498C25.8094 0.509546 27.1816 0 28.7273 0Z" fill="#07528C"/>
</svg>
