<svg width="22" height="20" viewBox="0 0 22 20" fill="none" xmlns="http://www.w3.org/2000/svg">
  <path fill-rule="evenodd" clip-rule="evenodd" d="M20.4423 12.8345C20.4423 12.5977 20.4226 12.364 20.3867 12.1335C21.2144 11.7688 21.8 10.9529 21.8 9.99927C21.8 8.70972 20.7336 7.6665 19.4149 7.6665C18.7704 7.6665 18.188 7.91626 17.7594 8.32251C16.1301 7.17041 13.8823 6.42798 11.3794 6.3418L12.4655 1.34009L16.0156 2.07935C16.058 2.9624 16.7974 3.6665 17.7102 3.6665C18.6525 3.6665 19.4149 2.9209 19.4149 1.99927C19.4149 1.07764 18.6525 0.332031 17.7102 0.332031C17.0395 0.332031 16.4671 0.712891 16.1891 1.26318L12.2236 0.437744C12.1123 0.415283 11.9977 0.43457 11.9028 0.495361C11.808 0.555908 11.7426 0.648926 11.7196 0.757568C11.7196 0.757568 10.5287 6.3064 10.5287 6.33838C7.98008 6.40234 5.68957 7.14819 4.0341 8.31616C3.6055 7.91284 3.02638 7.6665 2.38511 7.6665C1.06662 7.6665 0 8.71289 0 9.99927C0 10.9465 0.579117 11.7625 1.4101 12.1272C1.37415 12.3577 1.35443 12.5945 1.35443 12.8345C1.35443 16.4248 5.62742 19.3337 10.8984 19.3337C16.1693 19.3337 20.4423 16.4248 20.4423 12.8345ZM11.0032 16.431C12.0977 16.431 13.6335 16.1751 14.3503 15.4583C14.52 15.2886 14.792 15.2886 14.9617 15.4583C15.1279 15.6277 15.1279 15.8997 14.9617 16.0694C13.8223 17.2054 11.6431 17.295 11.0032 17.295C10.3633 17.295 8.18091 17.2054 7.04492 16.0694C6.87524 15.9 6.87524 15.628 7.04492 15.4583C7.21436 15.2886 7.48633 15.2886 7.65601 15.4583C8.3728 16.1751 9.90552 16.431 11.0032 16.431ZM9 11.6663C9 10.7478 8.25122 9.99902 7.33276 9.99902C6.41455 9.99902 5.66553 10.7478 5.66553 11.6663C5.66553 12.5845 6.41455 13.3335 7.33276 13.3335C8.25122 13.3335 9 12.5847 9 11.6663ZM13 11.6663C13 10.7478 13.7488 9.99902 14.6672 9.99902C15.5857 9.99902 16.3345 10.7478 16.3345 11.6663C16.3345 12.5845 15.5854 13.3335 14.6672 13.3335C13.7488 13.3335 13 12.5845 13 11.6663Z" fill="white"/>
</svg>
