<svg width="17" height="14" viewBox="0 0 17 14" fill="none" xmlns="http://www.w3.org/2000/svg">
  <path d="M17 1.6574C16.368 1.9385 15.694 2.1248 14.992 2.2152C15.714 1.778 16.266 1.0909 16.525 0.262798C15.851 0.669798 15.108 0.957402 14.315 1.1178C13.675 0.427502 12.764 0 11.769 0C9.84 0 8.286 1.5874 8.286 3.5334C8.286 3.8134 8.31 4.0826 8.367 4.3389C5.47 4.1957 2.90601 2.7882 1.18401 0.644001C0.883006 1.1728 0.707001 1.778 0.707001 2.4295C0.707001 3.6529 1.328 4.7374 2.255 5.3652C1.695 5.3545 1.14499 5.1897 0.679993 4.9302C0.679993 4.9409 0.679993 4.9549 0.679993 4.9689C0.679993 6.6855 1.888 8.1114 3.472 8.4398C3.189 8.5185 2.87901 8.5562 2.55901 8.5562C2.33501 8.5562 2.11 8.5432 1.899 8.4958C2.35 9.8948 3.632 10.9232 5.155 10.9566C3.97 11.8968 2.464 12.4632 0.834 12.4632C0.548 12.4632 0.274 12.4503 0 12.4148C1.544 13.4238 3.37299 14 5.34599 14C11.76 14 15.266 8.6154 15.266 3.948C15.266 3.7918 15.261 3.6411 15.253 3.4914C15.945 2.9938 16.526 2.3725 17 1.6574Z" fill="white"/>
</svg>
