<svg width="17" height="12" viewBox="0 0 17 12" fill="none" xmlns="http://www.w3.org/2000/svg">
  <path fill-rule="evenodd" clip-rule="evenodd" d="M15.1515 0.367001C15.8796 0.564701 16.4538 1.1435 16.6497 1.8777C17.0139 3.2188 16.9999 6.0141 16.9999 6.0141C16.9999 6.0141 16.9999 8.7952 16.6499 10.1364C16.4538 10.8705 15.8797 11.4494 15.1515 11.647C13.8211 12 8.5 12 8.5 12C8.5 12 3.1927 12 1.84847 11.633C1.12021 11.4353 0.54616 10.8564 0.35006 10.1223C4.76837e-07 8.7952 0 6 0 6C0 6 4.76837e-07 3.2188 0.35006 1.8777C0.54603 1.1436 1.13422 0.550601 1.84834 0.353001C3.1787 6.55651e-07 8.4998 0 8.4998 0C8.4998 0 13.8211 5.66244e-07 15.1515 0.367001ZM11.2306 6L6.8057 8.5694V3.4305L11.2306 6Z" fill="white"/>
</svg>
